<svg xmlns="http://www.w3.org/2000/svg" viewBox="0 0 602 182">
    <path fill="#FF9900" d="M374.006 142.184c-35 25.797-85.729 39.561-129.406 39.561-61.242 0-116.376-22.651-158.087-60.325-3.278-2.962-.341-7 3.591-4.693 45.015 26.191 100.673 41.947 158.166 41.947 38.775 0 81.43-8.022 120.65-24.67 5.925-2.516 10.88 3.88 5.086 8.18M388.557 125.536c-4.457-5.715-29.573-2.7-40.846-1.363-3.434.419-3.959-2.569-.865-4.719 20.003-14.078 52.827-10.015 56.654-5.296 3.828 4.745-.996 37.648-19.793 53.352-2.884 2.411-5.637 1.127-4.352-2.072 4.22-10.539 13.685-34.16 9.202-39.902"/>
    <path d="M348.497 20.066V6.381c0-2.071 1.573-3.46 3.461-3.46h61.269c1.966 0 3.54 1.415 3.54 3.46v11.692c-.027 1.966-1.679 4.535-4.615 8.599l-31.749 45.329c11.798-.289 24.25 1.468 34.947 7.498 2.412 1.363 3.068 3.356 3.251 5.322v14.553c0 1.992-2.202 4.325-4.509 3.12-18.85-9.884-43.887-10.959-64.73.105-2.123 1.154-4.351-1.153-4.351-3.146V85.661c0-2.229.026-6.03 2.254-9.412l36.782-52.748h-32.011c-1.967 0-3.539-1.389-3.539-3.435M124.129 105.77c0-1.966 1.626-3.513 3.514-3.513h61.374c1.989 0 3.593 1.547 3.593 3.513v12.001c0 1.966-1.604 3.513-3.593 3.513h-61.374c-1.888 0-3.514-1.547-3.514-3.513v-12.001M124.129 138.226c0-1.966 1.626-3.513 3.514-3.513h61.374c1.989 0 3.593 1.547 3.593 3.513v12.001c0 1.966-1.604 3.513-3.593 3.513h-61.374c-1.888 0-3.514-1.547-3.514-3.513v-12.001M0 105.77c0-1.966 1.626-3.513 3.514-3.513h61.374c1.989 0 3.593 1.547 3.593 3.513v12.001c0 1.966-1.604 3.513-3.593 3.513H3.514c-1.888 0-3.514-1.547-3.514-3.513v-12.001M0 138.226c0-1.966 1.626-3.513 3.514-3.513h61.374c1.989 0 3.593 1.547 3.593 3.513v12.001c0 1.966-1.604 3.513-3.593 3.513H3.514c-1.888 0-3.514-1.547-3.514-3.513v-12.001M124.129 73.314c0-1.966 1.626-3.513 3.514-3.513h61.374c1.989 0 3.593 1.547 3.593 3.513v12.001c0 1.966-1.604 3.513-3.593 3.513h-61.374c-1.888 0-3.514-1.547-3.514-3.513V73.314M0 73.314c0-1.966 1.626-3.513 3.514-3.513h61.374c1.989 0 3.593 1.547 3.593 3.513v12.001c0 1.966-1.604 3.513-3.593 3.513H3.514c-1.888 0-3.514-1.547-3.514-3.513V73.314"/>
</svg>
