<svg xmlns="http://www.w3.org/2000/svg" viewBox="0 0 576 164">
    <path fill="#000" d="M291.8 44.4c5.6-4.2 13.8-7.5 23.4-7.5 15.3 0 24.9 7 24.9 19.3 0 10.8-7.2 17.3-19.5 22.7-14.1 6.2-19.2 10.4-19.2 18.6v5.5h39.9v-15.3h-24.6c1.2-3.9 5.4-7.2 11.4-10.2 15-7.2 27.9-15.9 27.9-34.8 0-19.8-16.5-33.9-42.9-33.9-18.6 0-32.7 7.2-41.4 14.4l10.2 24c2.7-2.1 6-4.2 9.9-6.3v3.5zm-70.5 58.6h39.9v-15.3h-24.6c1.2-3.9 5.4-7.2 11.4-10.2 15-7.2 27.9-15.9 27.9-34.8 0-19.8-16.5-33.9-42.9-33.9-18.6 0-32.7 7.2-41.4 14.4l10.2 24c5.7-4.2 13.8-7.5 23.4-7.5 15.3 0 24.9 7 24.9 19.3 0 10.8-7.2 17.3-19.5 22.7-14.1 6.2-19.2 10.4-19.2 18.6v2.7zm-47.4 0h15.3v-15.3h-15.3v15.3zm-47.4 0h15.3v-15.3h-15.3v15.3zm-47.4 0h15.3v-15.3H79.1v15.3zm-47.4 0H47v-15.3H31.7v15.3zM0 103h15.3V87.7H0V103zm47.4 0h15.3V87.7H47.4V103z"/>
</svg>
