<svg xmlns="http://www.w3.org/2000/svg" viewBox="0 0 342 35">
    <path fill="#000" d="M0 .1a9.7 9.7 0 0 0 7 7h11l.5.1v27.6h6.8V7.3L26 7h11a9.8 9.8 0 0 0 7-7H0zm238.6 0h-6.8v34.8H263a9.7 9.7 0 0 0 6-6.8h-30.3V0zm-52.3 6.8c3.6-1 6.6-3.8 7.4-6.9l-38.1.1v20.6h31.1v7.2h-24.4a13.6 13.6 0 0 0-8.7 7h39.9v-21h-31.2v-7h24zm116.2 28h6.7v-14h24.6v14h6.7v-21h-38zM85.3 7h24v27.6h6.7V7h24.1a9.6 9.6 0 0 0 7.3-7H78a9.6 9.6 0 0 0 7.3 7zm0 13.8v20.4h6.7V20.8h38.3a12.3 12.3 0 0 0-7-6.8h-24.1v6.8h-6.7v-6.8h-24a12.3 12.3 0 0 0-7 6.8h24zm180.5-6.8h-31.1v6.8h24.1a12.3 12.3 0 0 0-7 6.8h-17.1v20.4h6.7V27.6h17.1c1.3 3 4.3 5.9 7 6.8h31.1V20.8zM203 6.8v20.4h6.7V13.6h24.1c1.3 3 4.3 5.9 7 6.8h31.1V6.8h-6.7v6.8h-24.1a12.3 12.3 0 0 0-7-6.8h-31.1z"/>
</svg>
